<?xml version="1.0" encoding="UTF-8"?>
<svg id="Layer_2" data-name="Layer 2" xmlns="http://www.w3.org/2000/svg" viewBox="0 0 700.65 188.45">
  <defs>
    <style>
      .cls-1 {
        fill: #faeaae;
      }
    </style>
  </defs>
  <g id="Guides">
    <g id="Crop_Marks" data-name="Crop Marks">
      <g>
        <path class="cls-1" d="M123.72,146.45h-10.25s-2.12-8.86-3.52-13.4l-20.8.39-4.6,13.01h-8.06c1.69-6.68,16.78-52.88,23.63-76.01,0,0,16.17,52.79,23.63,76.01h-.02ZM91.05,126.5h17.42l-8.37-31.76"/>
        <path class="cls-1" d="M579.7,146.45h-10.25s-2.12-8.86-3.52-13.4l-20.8.39-4.6,13.01h-8.06c1.69-6.68,16.78-52.88,23.63-76.01,0,0,16.17,52.79,23.63,76.01h-.02ZM547.02,126.5h17.42l-8.37-31.76"/>
        <polygon class="cls-1" points="589.08 164.48 582.1 172.11 118.9 171.53 112.41 164.48 589.08 164.48"/>
        <path class="cls-1" d="M249.38,69.6c27.74-4.73,40.84,26.7,35.76,49.81-5.19,23.5-31.61,38.18-50.07,18.09-9.86-10.74-11.8-24.06-10.16-38.33,1.28-11.15,12.97-27.61,24.47-29.57ZM250.46,79.33c-22.76,4.11-25.47,50.22.26,57.63,16.99,4.91,30.07-17.9,28.1-32.43-.5-3.65-3.46-11.95-5.51-15.02-5.4-8.04-13.06-11.95-22.83-10.18h-.02Z"/>
        <path class="cls-1" d="M291.84,69.36c2.27.28,6.79-.89,8.13,1.06l19.97,54.07v-55.13h7.57v76.74l-8.58-.06-19.52-52.9v52.96h-7.57v-76.74Z"/>
        <path class="cls-1" d="M583.68,69.36c7.76.04,16.21-.97,23.07,3.42,13.88,8.88,15.76,32.75,5.04,44.71-1.99,2.23-4.58,3.05-6.31,5.38l12.8,23.26-8.69-.5c-3.98-4.86-7.29-16.02-11.31-20.04-1.88-1.88-4.67-.91-7.03-1.08v21.62h-7.57v-76.76ZM591.25,115.84c25.94,1.92,26.76-40.12,0-36.75v36.75Z"/>
        <path class="cls-1" d="M0,146.11v-76.74c11.44-1.23,23.17,1.84,30.29,11.33,10.01,13.36,11.37,31.67,4.52,46.69-6.85,15.02-18.07,20.56-34.8,18.7v.02ZM7.57,137.46c15.74-.13,24.71-17.66,23.82-31.93-.8-12.75-9.71-27.28-23.82-26.44v58.37Z"/>
        <path class="cls-1" d="M623.67,146.11v-75.12c0-1.21,2.64-1.58,3.74-1.66,35.45-3.03,45.76,48.25,23.33,69.8-7.54,7.24-17.16,7.57-27.07,6.98h0ZM631.24,79.09v58.37c13.66-.19,22.87-13.58,23.82-26.44,1.08-14.51-7.54-32.56-23.82-31.93Z"/>
        <polygon class="cls-1" points="403.17 69.36 403.17 120.16 423.71 120.16 423.71 69.36 431.27 69.36 431.27 146.11 423.71 146.11 423.71 129.89 403.17 129.89 403.17 146.11 395.61 146.11 395.61 69.36 403.17 69.36"/>
        <polygon class="cls-1" points="168.62 69.36 168.62 120.16 189.16 120.16 189.16 69.36 196.72 69.36 196.72 146.11 189.16 146.11 189.16 129.89 168.62 129.89 168.62 146.11 161.05 146.11 161.05 69.36 168.62 69.36"/>
        <path class="cls-1" d="M696.09,87.76l-6.57-.48c-1.97-1.41-.13-9.36-9.08-8.15-5.4.71-7.74,7.41-5.47,11.87.15.28,3.68,4.65,4.11,5.08,1.75,1.77,5.84,3.87,7.8,5.71,5.36,4.95,12.73,12.43,13.55,19.95,3.33,30.55-32.77,34.44-33.55,3.83h7.54c2.18,21.23,24.8,10.53,16.45-7.24-4-8.5-15.11-12.37-20.6-20.49-7.93-11.74-1.28-30.81,14.4-28.45,7.85,1.19,12.13,11.09,11.37,18.33l.04.04Z"/>
        <polygon class="cls-1" points="72.42 69.36 72.42 79.09 51.88 79.09 51.88 115.84 69.18 115.84 69.18 124.49 51.88 124.49 51.88 137.46 72.42 137.46 73.5 146.11 44.32 146.11 44.32 69.36 72.42 69.36"/>
        <polygon class="cls-1" points="465.86 69.36 465.86 79.09 445.33 79.09 445.33 115.84 462.62 115.84 462.62 124.49 445.33 124.49 445.33 137.46 465.86 137.46 465.86 146.11 437.76 146.11 437.76 69.36 465.86 69.36"/>
        <path class="cls-1" d="M528.55,69.36v9.73c-14.74-2.18-25.79,11.82-27.04,25.38-1.53,16.54,8.88,34.37,27.04,32.99l-.13,7.98-.89,1.28c-18.74,1.34-31.48-14.96-33.49-32.56-2.44-21.32,10.12-47.39,34.52-44.79h-.02Z"/>
        <path class="cls-1" d="M155.65,69.36c1.92,12.99-4.28,9.4-14.05,9.73v67.02h-7.57v-67.02l-13.04-.48c-1.95-1.3-.69-6.87-1.02-9.25h35.67Z"/>
        <polygon class="cls-1" points="389.12 69.36 389.12 79.11 376.15 79.09 376.15 146.11 368.58 146.11 368.58 79.09 354.53 79.11 354.53 69.36 389.12 69.36"/>
        <path class="cls-1" d="M401.01,179.61c.69.65-3.03,6.81-3.78,7.57-1.79,1.79-9.88,1.19-12.99,1.1-4.43-.13-7.48,0-11.8,0-21.66.13-43.3-.24-64.96,0-4.56-.13-5.99-5.49-8.06-8.69h101.6v.02Z"/>
        <path class="cls-1" d="M372.91,29.37h11.89V6.13c0-1.12,3.07-2.08,4.32-1.62v37.83h-4.32v-8.65h-11.89l-.54,8.5-4.86.15V6.13c0-2.03,5.4-2.03,5.4,0v23.24Z"/>
        <path class="cls-1" d="M394.52,4.51c18.4-3.26,29.34,16.06,11.89,26.48l8.65,11.35c-7.22,2.75-9.64-10.01-14.59-10.81-2.4-.39-1.6,1.02-1.62,2.7-.04,2.7.04,5.43,0,8.13h-4.32V4.51ZM398.85,27.21c15.61-.71,16.15-17.21,0-18.38v18.38Z"/>
        <path class="cls-1" d="M278.87,4.51v23.24c0,2.59,10.64,1.38,12.97,1.62V4.51h4.32v37.83h-4.32v-8.65c-3,.22-6.25-.28-9.23-.04-5.51.43-3.46,4.22-3.74,8.69h-4.32V4.51h4.32Z"/>
        <path class="cls-1" d="M220.5,42.34c-14.87,1.1-24.43-8.26-22.76-23.3.8-7.29,12.82-16.47,20.6-14.55v5.4c-.91-.17-1.41-.86-2.46-.78-18.7,1.58-18.05,27.54.3,28.88v-10.81h-4.32v-4.32h8.65v19.48Z"/>
        <path class="cls-1" d="M326.43,42.34h-5.82s-1.21-4.32-1.99-6.53l-11.78.19-2.62,6.33h-4.56c.95-3.26,9.51-25.77,13.38-37.03,0,0,9.17,25.73,13.38,37.03ZM307.9,32.61h9.88l-4.73-15.48"/>
        <path class="cls-1" d="M251.13,42.34h-5.82s-1.21-4.32-1.99-6.53l-11.78.19-2.62,6.33h-4.56c.95-3.26,9.51-25.77,13.38-37.03,0,0,9.17,25.73,13.38,37.03ZM232.61,32.61h9.88l-4.73-15.48"/>
        <path class="cls-1" d="M197.67,42.34h-5.82s-1.21-4.32-1.99-6.53l-11.78.19-2.62,6.33h-4.56c.95-3.26,9.51-25.77,13.38-37.03,0,0,9.17,25.73,13.38,37.03ZM179.17,32.61h9.88l-4.73-15.48"/>
        <path class="cls-1" d="M497.21,4.51v4.32c-2.72.48-11.03-1.06-12.5,1.02-1.32,1.86-.63,6.68-.65,9.23,0,1.38.04,3.87.11,5.4.15,4.3,7.65,2.31,10.9,2.7v4.32l-9.06.13-1.69.91v3.76c.89,3.07,10.16,1.21,12.91,1.69v4.32h-17.29V6.13l1.62-1.62h15.67-.02Z"/>
        <path class="cls-1" d="M527.47,13.16c-4.78,1.3-3.65-1.6-5.62-2.98-3.2-2.25-9.38.11-6.81,5.17,2.23,4.41,13.49,7.2,14.57,14.61,2.16,14.79-18.31,17.03-20.49,2.68l5.32.09c-.45,6.16,8.04,6.59,10.38,2.1,5.17-9.99-22.14-14.07-14.03-25.92,5.21-7.61,16.15-5.23,16.71,4.28l-.02-.02Z"/>
        <path class="cls-1" d="M442.95,6.91c1.02,1.04,1.21,4.71,2.38,6.27-5.79,1.08-4.37-.67-6.49-2.68-2.33-2.23-7.13-1.23-7.33,2.31-.24,4.37,9.79,8.41,12.78,11.67,5.4,5.88,3.44,15.2-4.32,17.38-5.77,1.64-13.25-2.62-13.01-9.23,4.89-1.15,4.41,1.86,6.51,3.74,4,3.59,10.14.04,9.25-4.84-1.58-8.76-21.96-11.59-14.12-23.74,2.57-4,11.26-4.04,14.33-.89h.02Z"/>
        <polygon class="cls-1" points="468.02 4.51 468.02 9.91 460.46 8.83 460.46 42.34 455.05 42.34 455.05 8.83 447.49 8.83 447.49 4.51 468.02 4.51"/>
        <path class="cls-1" d="M271.3,4.51v4.32h-7.57v31.89c0,1.45-3.96,1.97-5.4,1.62V10.45c0-1.97-5.92-1.77-7.57-1.62v-4.32h20.54Z"/>
        <path class="cls-1" d="M364.26,4.51v4.71c-1.1-.13-1.38-.13-2.46-.06-20.41,1.3-17.4,30.59,2.46,28.88v4.3c-27.95,1.36-27.71-39.08,0-37.83Z"/>
        <path class="cls-1" d="M476.67,42.34h-5.4V4.51c1.45-.35,5.4.17,5.4,1.62v36.21Z"/>
        <rect class="cls-1" x="418.3" y="4.51" width="4.32" height="37.83"/>
        <rect class="cls-1" x="144.84" y="18.56" width="12.97" height="11.89"/>
        <rect class="cls-1" x="543.69" y="19.64" width="12.97" height="10.81"/>
        <path class="cls-1" d="M505.79,7.71l-3.18.04c1.6-1.88-3.37-6.42.54-7.57,4.6-1.32,4.15,4.71,2.64,7.52Z"/>
      </g>
    </g>
  </g>
</svg>