<?xml version="1.0" encoding="UTF-8"?>
<svg id="Layer_2" data-name="Layer 2" xmlns="http://www.w3.org/2000/svg" viewBox="0 0 324.12 87.17">
  <defs>
    <style>
      .cls-1 {
        fill: #fff;
      }
    </style>
  </defs>
  <g id="Crop_Marks" data-name="Crop Marks">
    <g>
      <path class="cls-1" d="M57.23,67.74c-2,0-4.74,0-4.74,0,0,0-.98-4.1-1.63-6.2l-9.62.18-2.13,6.02h-3.73c.78-3.09,7.76-24.46,10.93-35.16,0,0,7.48,24.42,10.93,35.16ZM42.12,58.51h8.06l-3.87-14.69"/>
      <path class="cls-1" d="M268.16,67.74c-2,0-4.74,0-4.74,0,0,0-.98-4.1-1.63-6.2l-9.62.18-2.13,6.02h-3.73c.78-3.09,7.76-24.46,10.93-35.16,0,0,7.48,24.42,10.93,35.16ZM253.04,58.51h8.06l-3.87-14.69"/>
      <polygon class="cls-1" points="272.5 76.08 269.27 79.61 55 79.34 52 76.08 272.5 76.08"/>
      <path class="cls-1" d="M115.36,32.19c12.83-2.19,18.89,12.35,16.54,23.04-2.4,10.87-14.62,17.66-23.16,8.37-4.56-4.97-5.46-11.13-4.7-17.73.59-5.16,6-12.77,11.32-13.68ZM115.86,36.69c-10.53,1.9-11.78,23.23.12,26.66,7.86,2.27,13.91-8.28,13-15-.23-1.69-1.6-5.53-2.55-6.95-2.5-3.72-6.04-5.53-10.56-4.71Z"/>
      <path class="cls-1" d="M135,32.08c1.05.13,3.14-.41,3.76.49l9.24,25.01v-25.5h3.5v35.5l-3.97-.03-9.03-24.47v24.5h-3.5v-35.5Z"/>
      <path class="cls-1" d="M270,32.08c3.59.02,7.5-.45,10.67,1.58,6.42,4.11,7.29,15.15,2.33,20.68-.92,1.03-2.12,1.41-2.92,2.49l5.92,10.76-4.02-.23c-1.84-2.25-3.37-7.41-5.23-9.27-.87-.87-2.16-.42-3.25-.5v10h-3.5v-35.5ZM273.5,53.58c12,.89,12.38-18.56,0-17v17Z"/>
      <path class="cls-1" d="M0,67.58v-35.5c5.29-.57,10.72.85,14.01,5.24,4.63,6.18,5.26,14.65,2.09,21.6s-8.36,9.51-16.1,8.65ZM3.5,63.58c7.28-.06,11.43-8.17,11.02-14.77-.37-5.9-4.49-12.62-11.02-12.23v27Z"/>
      <path class="cls-1" d="M288.5,67.58v-34.75c0-.56,1.22-.73,1.73-.77,16.4-1.4,21.17,22.32,10.79,32.29-3.49,3.35-7.94,3.5-12.52,3.23ZM292,36.58v27c6.32-.09,10.58-6.28,11.02-12.23.5-6.71-3.49-15.06-11.02-14.77Z"/>
      <polygon class="cls-1" points="186.5 32.08 186.5 55.58 196 55.58 196 32.08 199.5 32.08 199.5 67.58 196 67.58 196 60.08 186.5 60.08 186.5 67.58 183 67.58 183 32.08 186.5 32.08"/>
      <polygon class="cls-1" points="78 32.08 78 55.58 87.5 55.58 87.5 32.08 91 32.08 91 67.58 87.5 67.58 87.5 60.08 78 60.08 78 67.58 74.5 67.58 74.5 32.08 78 32.08"/>
      <path class="cls-1" d="M322,40.59l-3.04-.22c-.91-.65-.06-4.33-4.2-3.77-2.5.33-3.58,3.43-2.53,5.49.07.13,1.7,2.15,1.9,2.35.81.82,2.7,1.79,3.61,2.64,2.48,2.29,5.89,5.75,6.27,9.23,1.54,14.13-15.16,15.93-15.52,1.77h3.49c1.01,9.82,11.47,4.87,7.61-3.35-1.85-3.93-6.99-5.72-9.53-9.48-3.67-5.43-.59-14.25,6.66-13.16,3.63.55,5.61,5.13,5.26,8.48Z"/>
      <polygon class="cls-1" points="33.5 32.08 33.5 36.58 24 36.58 24 53.58 32 53.58 32 57.58 24 57.58 24 63.58 33.5 63.58 34 67.58 20.5 67.58 20.5 32.08 33.5 32.08"/>
      <polygon class="cls-1" points="215.5 32.08 215.5 36.58 206 36.58 206 53.58 214 53.58 214 57.58 206 57.58 206 63.58 215.5 63.58 215.5 67.58 202.5 67.58 202.5 32.08 215.5 32.08"/>
      <path class="cls-1" d="M244.5,32.08v4.5c-6.82-1.01-11.93,5.47-12.51,11.74-.71,7.65,4.11,15.9,12.51,15.26l-.06,3.69-.41.59c-8.67.62-14.56-6.92-15.49-15.06-1.13-9.86,4.68-21.92,15.97-20.72Z"/>
      <path class="cls-1" d="M72,32.08c.89,6.01-1.98,4.35-6.5,4.5v31h-3.5v-31l-6.03-.22c-.9-.6-.32-3.18-.47-4.28h16.5Z"/>
      <polygon class="cls-1" points="180 32.08 180 36.59 174 36.58 174 67.58 170.5 67.58 170.5 36.58 164 36.59 164 32.08 180 32.08"/>
      <path class="cls-1" d="M185.5,83.08c.32.3-1.4,3.15-1.75,3.5-.83.83-4.57.55-6.01.51-2.05-.06-3.46,0-5.46,0-10.02.06-20.03-.11-30.05,0-2.11-.06-2.77-2.54-3.73-4.02h47Z"/>
      <path class="cls-1" d="M172.5,13.58h5.5V2.83c0-.52,1.42-.96,2-.75v17.5h-2s0-4,0-4h-5.5s-.25,3.93-.25,3.93l-2.25.07V2.83c0-.94,2.5-.94,2.5,0v10.75Z"/>
      <path class="cls-1" d="M182.5,2.08c8.51-1.51,13.57,7.43,5.5,12.25l4,5.25c-3.34,1.27-4.46-4.63-6.75-5-1.11-.18-.74.47-.75,1.25-.02,1.25.02,2.51,0,3.76h-2V2.08ZM184.5,12.58c7.22-.33,7.47-7.96,0-8.5v8.5Z"/>
      <path class="cls-1" d="M129,2.08v10.75c0,1.2,4.92.64,6,.75V2.08h2v17.5h-2s0-4,0-4c-1.39.1-2.89-.13-4.27-.02-2.55.2-1.6,1.95-1.73,4.02h-2V2.08h2Z"/>
      <path class="cls-1" d="M102,19.58c-6.88.51-11.3-3.82-10.53-10.78.37-3.37,5.93-7.62,9.53-6.73v2.5c-.42-.08-.65-.4-1.14-.36-8.65.73-8.35,12.74.14,13.36v-5s-2,0-2,0v-2s4,0,4,0v9Z"/>
      <path class="cls-1" d="M151,19.58c-1.13,0-2.69,0-2.69,0,0,0-.56-2-.92-3.02l-5.45.09-1.21,2.93h-2.11c.44-1.51,4.4-11.92,6.19-17.13,0,0,4.24,11.9,6.19,17.13ZM142.43,15.08h4.57l-2.19-7.16"/>
      <path class="cls-1" d="M116.17,19.58c-1.13,0-2.69,0-2.69,0,0,0-.56-2-.92-3.02l-5.45.09-1.21,2.93h-2.11c.44-1.51,4.4-11.92,6.19-17.13,0,0,4.24,11.9,6.19,17.13ZM107.6,15.08h4.57l-2.19-7.16"/>
      <path class="cls-1" d="M91.44,19.58c-1.13,0-2.69,0-2.69,0,0,0-.56-2-.92-3.02l-5.45.09-1.21,2.93h-2.11c.44-1.51,4.4-11.92,6.19-17.13,0,0,4.24,11.9,6.19,17.13ZM82.88,15.08h4.57l-2.19-7.16"/>
      <path class="cls-1" d="M230,2.08v2c-1.26.22-5.1-.49-5.78.47-.61.86-.29,3.09-.3,4.27,0,.64.02,1.79.05,2.5.07,1.99,3.54,1.07,5.04,1.25v2s-4.19.06-4.19.06l-.78.42v1.74c.41,1.42,4.7.56,5.97.78v2h-8V2.83l.75-.75h7.25Z"/>
      <path class="cls-1" d="M244,6.08c-2.21.6-1.69-.74-2.6-1.38-1.48-1.04-4.34.05-3.15,2.39,1.03,2.04,6.24,3.33,6.74,6.76,1,6.84-8.47,7.88-9.48,1.24l2.46.04c-.21,2.85,3.72,3.05,4.8.97,2.39-4.62-10.24-6.51-6.49-11.99,2.41-3.52,7.47-2.42,7.73,1.98Z"/>
      <path class="cls-1" d="M204.9,3.19c.47.48.56,2.18,1.1,2.9-2.68.5-2.02-.31-3-1.24-1.08-1.03-3.3-.57-3.39,1.07-.11,2.02,4.53,3.89,5.91,5.4,2.5,2.72,1.59,7.03-2,8.04-2.67.76-6.13-1.21-6.02-4.27,2.26-.53,2.04.86,3.01,1.73,1.85,1.66,4.69.02,4.28-2.24-.73-4.05-10.16-5.36-6.53-10.98,1.19-1.85,5.21-1.87,6.63-.41Z"/>
      <polygon class="cls-1" points="216.5 2.08 216.5 4.58 213 4.08 213 19.58 210.5 19.58 210.5 4.08 207 4.08 207 2.08 216.5 2.08"/>
      <path class="cls-1" d="M125.5,2.08v2s-3.5,0-3.5,0v14.75c0,.67-1.83.91-2.5.75V4.83c0-.91-2.74-.82-3.5-.75v-2h9.5Z"/>
      <path class="cls-1" d="M168.5,2.08v2.18c-.51-.06-.64-.06-1.14-.03-9.44.6-8.05,14.15,1.14,13.36v1.99c-12.93.63-12.82-18.08,0-17.5Z"/>
      <path class="cls-1" d="M220.5,19.58h-2.5V2.08c.67-.16,2.5.08,2.5.75v16.75Z"/>
      <rect class="cls-1" x="193.5" y="2.08" width="2" height="17.5"/>
      <rect class="cls-1" x="67" y="8.58" width="6" height="5.5"/>
      <rect class="cls-1" x="251.5" y="9.08" width="6" height="5"/>
      <path class="cls-1" d="M233.97,3.56l-1.47.02c.74-.87-1.56-2.97.25-3.5,2.13-.61,1.92,2.18,1.22,3.48Z"/>
    </g>
  </g>
</svg>